<svg xmlns="http://www.w3.org/2000/svg" width="200" height="200" preserveAspectRatio="xMinYMid"><g><title>background</title><rect id="canvas_background" width="202" height="202" x="-1" y="-1" fill="none"/></g><g><title>Layer 1</title><path id="svg_19" fill="#673ab8" stroke="#673ab8" d="m100,6.87844l83.36915,46.56078l0,93.12156l-83.36915,46.56078l-83.36914,-46.56078l0,-93.12156l83.36914,-46.56078z"/><g id="svg_34"><g id="svg_5" stroke="null"><circle id="svg_1" cx="99.333" cy="100" r="57" stroke="null" class="st0"/><path id="svg_2" stroke="null" d="m59.433574,60.100231l79.799535,0l0,79.799535l-79.799535,0l0,-79.799535z" class="st1"/><path id="svg_3" stroke="null" d="m139.233109,60.100231l-39.899768,79.799535l-39.899768,-79.799535l79.799535,0z" class="st2"/><path id="svg_4" stroke="null" d="m42.333671,43.000329l113.999336,0l0,113.999336l-113.999336,0l0,-113.999336z" class="st3"/></g><ellipse id="svg_25" cx="99.333" cy="93.333" fill="#673ab8" stroke="null" stroke-width="null" rx="2" ry="2"/></g><g id="svg_36" stroke="null"><ellipse id="svg_32" cx="296.539" cy="89.457" fill="none" fill-opacity="null" stroke="#673ab8" stroke-width="5" rx="75.191" ry="20.958" transform="matrix(0.17321515449627276,0.17321515449627273,-0.17321515449627273,0.17321515449627276,63.46362017579341,27.139604895916065)"/><ellipse id="svg_35" cx="113.493" cy="297.275" fill="none" fill-opacity="null" stroke="#673ab8" stroke-width="5" rx="75.191" ry="20.958" transform="matrix(0.17321515449627276,-0.17321515449627273,0.17321515449627273,0.17321515449627276,28.182048694186207,62.16614021567621)"/></g></g></svg>